# xmcd
# 
# Track frame offsets:
#     150
#     21591
#     37536
#     56408
#     73851
#     88919
#     108253
#     124988
# 
# Disc length: 1869
# 
# Revision: 0
# Processed by: cddbd v1.5.2PL0 Copyright (c) Steve Scherf et al.
# Submitted via: fre:ac v1.0.17
# 
DISCID=69074b08
DTITLE=Dan Michaelson - Sudden Fiction
DYEAR=2011
DGENRE=Country
TTITLE0=Breaking Falls
TTITLE1=Knots
TTITLE2=Tonight
TTITLE3=I Lay With You
TTITLE4=New Ruins
TTITLE5=We Clear
TTITLE6=Knee Deep
TTITLE7=Scraps
EXTD=
EXTT0=
EXTT1=
EXTT2=
EXTT3=
EXTT4=
EXTT5=
EXTT6=
EXTT7=
PLAYORDER=
